<svg width="74" height="80" viewBox="0 0 74 80" fill="none" xmlns="http://www.w3.org/2000/svg">
<path d="M59.008 71.4806C43.2665 71.4806 32.4566 79.6347 24.8715 79.6347C17.2863 79.6347 1.35596 75.2743 1.35596 40.3799C1.35596 5.48555 22.7869 0.362793 31.1299 0.362793C70.198 0.362793 86.8862 71.4806 59.008 71.4806Z" fill="#F1F1F1"/>
<path d="M9.73438 6.59375L12.9528 3.37533L14.562 4.98454L11.3436 8.20296L9.73438 6.59375Z" fill="black"/>
<path d="M0.480957 15.8452L3.69938 12.6268L5.3086 14.236L2.09017 17.4544L0.480957 15.8452Z" fill="black"/>
<path d="M0.884766 4.98145L2.49398 3.37223L5.7124 6.59066L4.10319 8.19987L0.884766 4.98145Z" fill="black"/>
<path d="M58.1591 61.0509H16.0574C13.5427 61.0509 11.5059 59.0141 11.5059 56.4994V22.3628H62.7107V56.4994C62.7107 59.0141 60.6739 61.0509 58.1591 61.0509Z" fill="#F1F1F1"/>
<path d="M11.5059 22.3627H62.7107V18.949C62.7107 16.4343 60.6739 14.3975 58.1591 14.3975H16.0574C13.5427 14.3975 11.5059 16.4343 11.5059 18.949V22.3627Z" fill="#01FF66"/>
<path d="M11.5059 62.1888C11.5059 64.0731 13.0352 65.6024 14.9195 65.6024H29.712C31.5964 65.6024 33.1257 64.0731 33.1257 62.1888V31.4659C33.1257 29.5816 31.5964 28.0522 29.712 28.0522H14.9195C13.0352 28.0522 11.5059 29.5816 11.5059 31.4659V62.1888Z" fill="#F1F1F1"/>
<path d="M29.7119 28.0522C28.4557 28.0522 27.4362 29.0718 27.4362 30.328C27.4362 31.5842 26.4166 32.6038 25.1604 32.6038H19.471C18.2147 32.6038 17.1952 31.5842 17.1952 30.328C17.1952 29.0718 16.1757 28.0522 14.9194 28.0522H29.7119Z" fill="#01FF66"/>
<path d="M21.1779 14.3975H16.0574C13.5427 14.3975 11.5059 16.4343 11.5059 18.949V22.3627H16.6263V18.949C16.6263 16.4343 18.6632 14.3975 21.1779 14.3975Z" fill="#01FF66"/>
<path d="M22.3157 30.328C22.3157 29.0718 21.2961 28.0522 20.0399 28.0522H14.9194C16.1757 28.0522 17.1952 29.0718 17.1952 30.328C17.1952 31.5842 18.2147 32.6038 19.471 32.6038H24.5915C23.3352 32.6038 22.3157 31.5842 22.3157 30.328Z" fill="#01FF66"/>
<path d="M16.6263 62.1888V31.4659C16.6263 29.5816 18.1557 28.0522 20.04 28.0522H14.9195C13.0352 28.0522 11.5059 29.5816 11.5059 31.4659V62.1888C11.5059 64.0731 13.0352 65.6024 14.9195 65.6024H20.04C18.1557 65.6024 16.6263 64.0731 16.6263 62.1888Z" fill="#F1F1F1"/>
<path d="M16.6263 22.3628V27.4833L11.5059 29.759V22.3628H16.6263Z" fill="#F1F1F1"/>
<path d="M25.1604 34.3109H19.471C17.2749 34.3109 15.4884 32.5244 15.4884 30.3283C15.4884 30.0142 15.2335 29.7594 14.9194 29.7594V26.3457C17.1156 26.3457 18.902 28.1322 18.902 30.3283C18.902 30.6424 19.1569 30.8972 19.471 30.8972H25.1604C25.4745 30.8972 25.7293 30.6424 25.7293 30.3283C25.7293 28.1322 27.5158 26.3457 29.7119 26.3457V29.7594C29.3979 29.7594 29.143 30.0142 29.143 30.3283C29.143 32.5244 27.3565 34.3109 25.1604 34.3109Z" fill="black"/>
<path d="M29.7118 67.3096H14.9193C12.0974 67.3096 9.79883 65.0133 9.79883 62.1891V31.4662C9.79883 28.642 12.0974 26.3457 14.9193 26.3457H29.7118C32.5338 26.3457 34.8323 28.642 34.8323 31.4662V62.1891C34.8323 65.0133 32.5338 67.3096 29.7118 67.3096ZM14.9193 29.7594C13.9794 29.7594 13.2125 30.524 13.2125 31.4662V62.1891C13.2125 63.1312 13.9794 63.8959 14.9193 63.8959H29.7118C30.6517 63.8959 31.4186 63.1312 31.4186 62.1891V31.4662C31.4186 30.524 30.6517 29.7594 29.7118 29.7594H14.9193Z" fill="black"/>
<path d="M58.1589 62.7574H39.3838V59.3437H58.1589C59.7269 59.3437 61.0036 58.067 61.0036 56.499V18.9488C61.0036 17.3808 59.7269 16.1041 58.1589 16.1041H16.0572C14.4892 16.1041 13.2125 17.3808 13.2125 18.9488V21.7935H9.79883V18.9488C9.79883 15.4965 12.6049 12.6904 16.0572 12.6904H58.1589C61.6113 12.6904 64.4173 15.4965 64.4173 18.9488V56.499C64.4173 59.9513 61.6113 62.7574 58.1589 62.7574Z" fill="black"/>
<path d="M34.8325 20.6558H62.7107V24.0694H34.8325V20.6558Z" fill="black"/>
<path d="M42.7202 43.3467L51.2539 34.813L53.6677 37.2268L45.134 45.7605L42.7202 43.3467Z" fill="black"/>
<path d="M50.7632 46.8272H43.367C42.4248 46.8272 41.6602 46.0625 41.6602 45.1204V37.7241H45.0738V43.4135H50.7632V46.8272Z" fill="black"/>
</svg>
