<svg width="60" height="61" viewBox="0 0 60 61" fill="none" xmlns="http://www.w3.org/2000/svg">
<path d="M29.9999 0C31.6371 0 33.2626 0.133545 34.8781 0.39928C36.4935 0.665692 38.0757 1.0609 39.6267 1.58627C41.1771 2.11164 42.6739 2.75903 44.1184 3.52979C45.563 4.29988 46.9351 5.1825 48.2346 6.17765C49.5341 7.17212 50.7449 8.26624 51.8647 9.45933C52.9867 10.6524 54.0021 11.9282 54.9139 13.2881C55.8264 14.6473 56.6215 16.0715 57.3001 17.5622C57.9787 19.0515 58.5318 20.5863 58.9589 22.1665L44.4791 26.0833C44.2669 25.2929 43.989 24.5255 43.65 23.7805C43.3104 23.0355 42.9125 22.3237 42.4569 21.6438C42.0007 20.9646 41.493 20.3267 40.9323 19.7294C40.3724 19.1329 39.767 18.5858 39.1169 18.0882C38.4668 17.5913 37.7808 17.15 37.0589 16.765C36.3369 16.38 35.5878 16.0559 34.813 15.7929C34.0375 15.5306 33.2464 15.3326 32.439 15.1991C31.631 15.0662 30.8182 14.9998 29.9993 14.9998V0H29.9999Z" fill="#720024"/>
<path d="M58.5321 20.7305C59.0371 22.2876 59.4127 23.8752 59.6588 25.4933C59.9048 27.1115 60.0174 28.7391 59.9977 30.3755C59.9767 32.0127 59.8235 33.6369 59.5367 35.2482C59.2507 36.8596 58.8351 38.4377 58.2908 39.9806C57.7457 41.5249 57.08 43.0142 56.2916 44.4486C55.5033 45.883 54.6037 47.2443 53.5923 48.5309C52.5815 49.8175 51.4725 51.0154 50.2652 52.121C49.0578 53.2267 47.7692 54.2266 46.3991 55.1221L38.1993 42.5607C38.8847 42.114 39.5287 41.6143 40.1327 41.0605C40.7367 40.508 41.2912 39.9101 41.7962 39.2654C42.302 38.6228 42.7514 37.9422 43.1459 37.2243C43.5398 36.5071 43.8733 35.7621 44.1458 34.9906C44.4177 34.2185 44.6265 33.4295 44.7695 32.6248C44.9125 31.8188 44.9891 31.0073 44.9993 30.1878C45.0101 29.3695 44.9532 28.5554 44.8298 27.7467C44.7071 26.9373 44.5193 26.1435 44.2665 25.3652L58.5321 20.7305Z" fill="#8E002D"/>
<path d="M47.6338 54.2716C46.3099 55.2335 44.9154 56.0829 43.4525 56.8157C41.9896 57.5499 40.4766 58.1593 38.9134 58.6474C37.3501 59.1328 35.7584 59.4886 34.1369 59.7144C32.5154 59.9408 30.8871 60.033 29.25 59.9916C27.6135 59.9503 25.9913 59.7774 24.3834 59.4703C22.7754 59.1639 21.2034 58.7287 19.6666 58.1647C18.1298 57.6 16.6493 56.9154 15.2244 56.1093C13.7994 55.304 12.4497 54.3875 11.1753 53.3591L20.5879 41.6797C21.2251 42.1929 21.8996 42.6511 22.612 43.0545C23.3245 43.4571 24.0654 43.8001 24.8328 44.0821C25.6016 44.3642 26.3872 44.5811 27.1912 44.735C27.9952 44.8888 28.8066 44.9749 29.6249 44.9959C30.4431 45.0163 31.2572 44.9702 32.068 44.857C32.8781 44.7444 33.6746 44.5655 34.4562 44.3235C35.2371 44.0801 35.9937 43.7744 36.7258 43.4076C37.4566 43.0402 38.1541 42.6159 38.8164 42.1359L47.6338 54.2716Z" fill="#AA0036"/>
<path d="M12.3664 54.2694C11.0418 53.3074 9.80465 52.2438 8.65426 51.0792C7.50455 49.9139 6.45653 48.6639 5.51087 47.3277C4.5652 45.9916 3.73478 44.5877 3.01893 43.1153C2.30375 41.6429 1.71263 40.1224 1.24623 38.5538C0.779166 36.9844 0.44293 35.3887 0.237528 33.7644C0.0321264 32.1402 -0.0404081 30.5106 0.0212803 28.8748C0.0829686 27.239 0.276846 25.6195 0.603591 24.015C0.930336 22.4111 1.38452 20.8445 1.96751 19.3145L15.9843 24.6569C15.6928 25.4216 15.4657 26.2052 15.3024 27.0079C15.139 27.8091 15.0421 28.6199 15.0115 29.4374C14.981 30.2557 15.017 31.0705 15.12 31.8826C15.2224 32.694 15.3905 33.4926 15.6244 34.2763C15.8582 35.0619 16.1531 35.8218 16.5111 36.558C16.869 37.2942 17.2839 37.9959 17.757 38.6636C18.2295 39.3313 18.7542 39.957 19.3291 40.54C19.9046 41.1216 20.5228 41.6545 21.1851 42.1358L12.3664 54.2694Z" fill="#C7003F"/>
<path d="M1.46875 20.7293C1.9548 19.2325 2.55541 17.7825 3.27059 16.38C3.98577 14.9774 4.80534 13.6392 5.73067 12.3661C6.656 11.0931 7.67555 9.89929 8.78797 8.78686C9.90107 7.67376 11.0942 6.65489 12.3679 5.72888C13.641 4.80423 14.9799 3.98466 16.3817 3.26948C17.7843 2.55498 19.2336 1.95505 20.7311 1.46764C22.2279 0.981591 23.7538 0.615528 25.3082 0.368774C26.8627 0.123377 28.4272 0 30.0006 0L29.9993 14.9998C29.2122 14.9998 28.43 15.0615 27.6531 15.1848C26.8762 15.3075 26.1129 15.4912 25.3645 15.7346C24.6161 15.9773 23.8914 16.2776 23.1905 16.6348C22.4889 16.9921 21.8205 17.4029 21.1833 17.8652C20.5474 18.3275 19.9509 18.8373 19.3936 19.3932C18.8378 19.9497 18.328 20.5463 17.865 21.1835C17.4026 21.8201 16.9925 22.4891 16.6353 23.1894C16.278 23.891 15.9777 24.6157 15.735 25.3641L1.46875 20.7293Z" fill="#DD0046"/>
</svg>
