<svg width="69" height="64" viewBox="0 0 69 64" fill="none" xmlns="http://www.w3.org/2000/svg">
<path d="M14 21.25V51.875C14 52.7452 14.3457 53.5798 14.9611 54.1952C15.5764 54.8105 16.411 55.1562 17.2813 55.1562H40.25V61.7188H34.7813C34.4912 61.7188 34.213 61.834 34.0079 62.0391C33.8027 62.2442 33.6875 62.5224 33.6875 62.8125C33.6875 63.1026 33.8027 63.3808 34.0079 63.5859C34.213 63.791 34.4912 63.9062 34.7813 63.9062H47.9063C48.1963 63.9062 48.4745 63.791 48.6796 63.5859C48.8848 63.3808 49 63.1026 49 62.8125C49 62.5224 48.8848 62.2442 48.6796 62.0391C48.4745 61.834 48.1963 61.7188 47.9063 61.7188H42.4375V55.1562H65.4063C66.2765 55.1562 67.1111 54.8105 67.7264 54.1952C68.3418 53.5798 68.6875 52.7452 68.6875 51.875V21.25C68.6875 20.3798 68.3418 19.5452 67.7264 18.9298C67.1111 18.3145 66.2765 17.9688 65.4063 17.9688H17.2813C16.411 17.9688 15.5764 18.3145 14.9611 18.9298C14.3457 19.5452 14 20.3798 14 21.25ZM40.25 36.5625C40.2483 34.5844 40.7344 32.6364 41.6652 30.891C42.5959 29.1456 43.9427 27.6567 45.5862 26.5559C47.2298 25.4552 49.1193 24.7767 51.0876 24.5804C53.056 24.3842 55.0423 24.6763 56.8708 25.4308C58.6993 26.1854 60.3135 27.3792 61.5706 28.9065C62.8277 30.4337 63.6888 32.2474 64.0777 34.1869C64.4666 36.1263 64.3713 38.1318 63.8002 40.0256C63.2292 41.9195 62.2 43.6433 60.8037 45.0445C60.7972 45.0522 60.795 45.062 60.7873 45.0686C60.7797 45.0752 60.7709 45.0784 60.7633 45.085C59.0799 46.7636 56.9367 47.9054 54.6045 48.3663C52.2723 48.8271 49.8559 48.5863 47.6605 47.6742C45.4652 46.7621 43.5895 45.2197 42.2705 43.242C40.9515 41.2642 40.2484 38.9398 40.25 36.5625ZM18.375 43.125C18.375 42.8349 18.4902 42.5567 18.6954 42.3516C18.9005 42.1465 19.1787 42.0312 19.4687 42.0312H34.7813C35.0713 42.0312 35.3495 42.1465 35.5546 42.3516C35.7598 42.5567 35.875 42.8349 35.875 43.125C35.875 43.4151 35.7598 43.6933 35.5546 43.8984C35.3495 44.1035 35.0713 44.2188 34.7813 44.2188H19.4687C19.1787 44.2188 18.9005 44.1035 18.6954 43.8984C18.4902 43.6933 18.375 43.4151 18.375 43.125ZM34.7813 37.6562H27.125C26.8349 37.6562 26.5567 37.541 26.3516 37.3359C26.1465 37.1308 26.0313 36.8526 26.0313 36.5625C26.0313 36.2724 26.1465 35.9942 26.3516 35.7891C26.5567 35.584 26.8349 35.4688 27.125 35.4688H34.7813C35.0713 35.4688 35.3495 35.584 35.5546 35.7891C35.7598 35.9942 35.875 36.2724 35.875 36.5625C35.875 36.8526 35.7598 37.1308 35.5546 37.3359C35.3495 37.541 35.0713 37.6562 34.7813 37.6562ZM18.375 30C18.375 29.7099 18.4902 29.4317 18.6954 29.2266C18.9005 29.0215 19.1787 28.9062 19.4687 28.9062H34.7813C35.0713 28.9062 35.3495 29.0215 35.5546 29.2266C35.7598 29.4317 35.875 29.7099 35.875 30C35.875 30.2901 35.7598 30.5683 35.5546 30.7734C35.3495 30.9785 35.0713 31.0938 34.7813 31.0938H19.4687C19.1787 31.0938 18.9005 30.9785 18.6954 30.7734C18.4902 30.5683 18.375 30.2901 18.375 30Z" fill="#01FF66"/>
<path d="M44.0625 45.0417H41.125V0.979197C41.125 0.438697 40.6863 0 40.1458 0H6.8542C6.3137 0 5.875 0.438697 5.875 0.979197V45.0417H2.9375C2.397 45.0417 1.9583 45.4804 1.9583 46.0209C1.9583 46.5613 2.397 47 2.9375 47H44.0625C44.603 47 45.0417 46.5613 45.0417 46.0208C45.0417 45.4803 44.603 45.0417 44.0625 45.0417ZM27.4167 45.0417H19.5834V37.2084H27.4167V45.0417ZM39.1667 45.0417H29.375V36.2292C29.375 35.6887 28.9363 35.25 28.3958 35.25H18.6042C18.0637 35.25 17.625 35.6887 17.625 36.2292V45.0417H7.8333V1.9583H39.1666V45.0417H39.1667Z" fill="black"/>
<path d="M10.7708 13.7083H16.6458C17.1863 13.7083 17.625 13.2696 17.625 12.7291V6.85411C17.625 6.3137 17.1863 5.875 16.6458 5.875H10.7708C10.2303 5.875 9.7916 6.3137 9.7916 6.8542V12.7292C9.79169 13.2697 10.2303 13.7083 10.7708 13.7083ZM11.75 7.8333H15.6667V11.75H11.75V7.8333Z" fill="black"/>
<path d="M30.3542 13.7083H36.2292C36.7697 13.7083 37.2084 13.2696 37.2084 12.7291V6.85411C37.2084 6.31361 36.7697 5.87491 36.2292 5.87491H30.3542C29.8137 5.875 29.375 6.3137 29.375 6.8542V12.7292C29.375 13.2697 29.8137 13.7083 30.3542 13.7083ZM31.3333 7.8333H35.25V11.75H31.3333V7.8333V7.8333Z" fill="black"/>
<path d="M20.5625 13.7083H26.4375C26.978 13.7083 27.4167 13.2696 27.4167 12.7291V6.85411C27.4167 6.3137 26.978 5.875 26.4375 5.875H20.5625C20.022 5.875 19.5833 6.3137 19.5833 6.8542V12.7292C19.5833 13.2697 20.022 13.7083 20.5625 13.7083ZM21.5417 7.8333H25.4584V11.75H21.5417V7.8333Z" fill="black"/>
<path d="M10.7708 23.5H16.6458C17.1863 23.5 17.625 23.0613 17.625 22.5208V16.6458C17.625 16.1053 17.1863 15.6666 16.6458 15.6666H10.7708C10.2303 15.6666 9.7916 16.1053 9.7916 16.6458V22.5208C9.79169 23.0613 10.2303 23.5 10.7708 23.5ZM11.75 17.625H15.6667V21.5417H11.75V17.625Z" fill="black"/>
<path d="M30.3542 23.5H36.2292C36.7697 23.5 37.2084 23.0613 37.2084 22.5208V16.6458C37.2084 16.1053 36.7697 15.6666 36.2292 15.6666H30.3542C29.8137 15.6666 29.375 16.1053 29.375 16.6458V22.5208C29.375 23.0613 29.8137 23.5 30.3542 23.5ZM31.3333 17.625H35.25V21.5417H31.3333V17.625V17.625Z" fill="black"/>
<path d="M20.5625 23.5H26.4375C26.978 23.5 27.4167 23.0613 27.4167 22.5208V16.6458C27.4167 16.1053 26.978 15.6666 26.4375 15.6666H20.5625C20.022 15.6666 19.5833 16.1053 19.5833 16.6458V22.5208C19.5833 23.0613 20.022 23.5 20.5625 23.5ZM21.5417 17.625H25.4584V21.5417H21.5417V17.625Z" fill="black"/>
<path d="M10.7708 33.2917H16.6458C17.1863 33.2917 17.625 32.853 17.625 32.3125V26.4375C17.625 25.897 17.1863 25.4583 16.6458 25.4583H10.7708C10.2303 25.4583 9.7916 25.897 9.7916 26.4375V32.3125C9.79169 32.853 10.2303 33.2917 10.7708 33.2917ZM11.75 27.4167H15.6667V31.3334H11.75V27.4167Z" fill="black"/>
<path d="M30.3542 33.2917H36.2292C36.7697 33.2917 37.2084 32.853 37.2084 32.3125V26.4375C37.2084 25.897 36.7697 25.4583 36.2292 25.4583H30.3542C29.8137 25.4583 29.375 25.897 29.375 26.4375V32.3125C29.375 32.853 29.8137 33.2917 30.3542 33.2917ZM31.3333 27.4167H35.25V31.3334H31.3333V27.4167V27.4167Z" fill="black"/>
<path d="M20.5625 33.2917H26.4375C26.978 33.2917 27.4167 32.853 27.4167 32.3125V26.4375C27.4167 25.897 26.978 25.4583 26.4375 25.4583H20.5625C20.022 25.4583 19.5833 25.897 19.5833 26.4375V32.3125C19.5833 32.853 20.022 33.2917 20.5625 33.2917ZM21.5417 27.4167H25.4584V31.3334H21.5417V27.4167Z" fill="black"/>
<path d="M51.1874 26.7832V35.4687H42.502C42.7528 33.2516 43.7485 31.1852 45.3262 29.6074C46.9039 28.0297 48.9703 27.034 51.1874 26.7832Z" fill="#01FF66"/>
<path d="M58.4182 44.2461C57.0447 45.3471 55.4006 46.059 53.6579 46.3074C51.9151 46.5558 50.1377 46.3316 48.5112 45.6582C46.8848 44.9848 45.469 43.8869 44.4119 42.4793C43.3548 41.0717 42.6952 39.406 42.502 37.6562H51.8284L58.4182 44.2461Z" fill="#01FF66"/>
<path d="M53.375 26.7832C55.1247 26.9764 56.7904 27.6361 58.198 28.6932C59.6057 29.7503 60.7035 31.166 61.3769 32.7925C62.0503 34.4189 62.2746 36.1964 62.0262 37.9391C61.7778 39.6819 61.0659 41.3259 59.9648 42.6994L53.375 36.1096V26.7832Z" fill="#01FF66"/>
</svg>
