<svg width="76" height="76" viewBox="0 0 76 76" fill="none" xmlns="http://www.w3.org/2000/svg">
<rect width="76" height="76" rx="10" fill="black"/>
<g clip-path="url(#clip0)">
<path d="M30.7463 45.0985C29.3755 43.7276 27.1453 43.7276 25.7745 45.0985C24.826 46.0468 20.9584 52.567 18 58.0001C23.4322 55.0424 29.7979 51.0188 30.7463 50.0703C32.1172 48.6995 32.1172 46.4693 30.7463 45.0985Z" fill="#01FF66"/>
<path d="M47.3968 28.6032C46.4832 27.6896 44.9957 27.6896 44.0822 28.6032C43.1686 29.5167 43.1686 31.0042 44.0822 31.9178C44.9957 32.8314 46.4832 32.8314 47.3968 31.9178C48.3104 31.0042 48.3104 29.5168 47.3968 28.6032Z" fill="#01FF66"/>
<path d="M30.4106 34.8188C29.2048 37.5203 28.9507 39.4292 28.7915 39.8288L36.1569 47.1943C36.3118 47.1329 38.3168 46.7833 41.1143 45.5226L30.4106 34.8188Z" fill="#01FF66"/>
<path d="M58.0002 18C56.4134 18.3159 46.7818 16.3141 36.83 25.9187C34.3499 28.3123 32.6988 30.6023 31.5371 32.6307L43.3098 44.4034C45.422 43.2163 47.7742 41.5604 50.0814 39.1702C59.6655 29.2405 57.6891 19.5626 58.0002 18ZM39.9392 37.7183L38.2818 36.0609L39.9392 34.4036L41.5965 36.0609L39.9392 37.7183ZM49.0541 33.575C47.2237 35.4056 44.2556 35.4056 42.4252 33.575C40.5945 31.7445 40.5945 28.7765 42.4252 26.946C44.2556 25.1154 47.2237 25.1154 49.0541 26.946C50.8848 28.7765 50.8848 31.7445 49.0541 33.575ZM51.5401 26.1173L49.8828 24.46L51.5401 22.8026L53.1975 24.46L51.5401 26.1173Z" fill="#01FF66"/>
<path d="M35.5882 49.9407L34.7256 49.078L33.3945 54.4019L42.7847 49.7068L43.4662 46.9814C39.8772 48.8332 38.4694 48.8759 35.5882 49.9407Z" fill="#01FF66"/>
<path d="M28.9011 32.5625L26.2927 33.2148L21.5977 42.605L26.9216 41.2739L26.0419 40.3943C27.3176 37.0262 27.0363 36.1905 28.9011 32.5625Z" fill="#01FF66"/>
</g>
<defs>
<clipPath id="clip0">
<rect width="40" height="40" fill="white" transform="translate(18 18)"/>
</clipPath>
</defs>
</svg>
