<svg width="76" height="76" viewBox="0 0 76 76" fill="none" xmlns="http://www.w3.org/2000/svg">
<rect width="76" height="76" rx="10" fill="black"/>
<g clip-path="url(#clip0)">
<path d="M40.1046 51.3757C40.7447 51.312 41.212 50.7415 41.1484 50.1013C41.0847 49.4611 40.5141 48.9938 39.8739 49.0575C39.2338 49.1212 38.7665 49.6918 38.8302 50.332C38.8939 50.9721 39.4644 51.4394 40.1046 51.3757Z" fill="white"/>
<path d="M38.3973 55.7468C39.0407 55.7468 39.5623 55.2253 39.5623 54.5819C39.5623 53.9385 39.0407 53.417 38.3973 53.417C37.754 53.417 37.2324 53.9385 37.2324 54.5819C37.2324 55.2253 37.754 55.7468 38.3973 55.7468Z" fill="white"/>
<path d="M33.5187 54.7898C34.1588 54.7261 34.6261 54.1555 34.5624 53.5154C34.4987 52.8752 33.9282 52.4079 33.288 52.4716C32.6479 52.5353 32.1805 53.1059 32.2442 53.746C32.3079 54.3862 32.8785 54.8535 33.5187 54.7898Z" fill="white"/>
<path d="M37.3259 50.8898C36.1748 49.7509 35.5409 48.2374 35.5409 46.6283C35.5409 45.8226 35.6998 45.0409 36.003 44.3181L34.2564 42.5898C33.5741 43.8123 33.2109 45.1924 33.2109 46.6284C33.2109 48.8645 34.0903 50.966 35.6871 52.546C35.9142 52.7707 36.2103 52.8829 36.5064 52.8829C36.8066 52.8829 37.1067 52.7676 37.3345 52.5373C37.787 52.0799 37.7832 51.3423 37.3259 50.8898Z" fill="white"/>
<path d="M31.3457 39.71L18.3456 52.5738C17.8882 53.0264 17.8843 53.7639 18.3368 54.2212C18.7523 54.5736 19.4586 54.7149 19.9843 54.23L33.0019 41.3488L31.3457 39.71Z" fill="white"/>
<path d="M38.7853 32.1628V43.7937L39.6646 44.6638C40.0267 45.0221 40.6097 45.0221 40.9718 44.6638L41.8299 43.8147V29.0366L38.7798 32.0548C38.7831 32.0904 38.7853 32.1264 38.7853 32.1628Z" fill="white"/>
<path d="M36.4554 34.355L33.5184 37.2612C33.1508 37.6248 33.1508 38.2187 33.5184 38.5823L36.4554 41.4885V34.355Z" fill="white"/>
<path d="M56.9063 20.2534C56.8382 20.2534 56.7686 20.2598 56.6982 20.2731L47.105 22.089C46.2364 22.2534 45.909 23.3251 46.5374 23.9469L54.2955 31.6237C55.0165 32.2188 55.9791 31.8679 56.1445 31.052L57.9797 21.5594C58.1132 20.8687 57.5761 20.2533 56.9063 20.2534Z" fill="white"/>
<path d="M47.2044 27.8848L45.7527 26.4484C45.3906 26.0901 44.8075 26.0901 44.4454 26.4484L44.1597 26.7311V41.5092L47.2075 38.4933C47.2064 38.4728 47.2044 38.4525 47.2044 38.4317V27.8848Z" fill="white"/>
<path d="M49.5342 36.1913L51.8988 33.8514C52.2664 33.4878 52.2664 32.8939 51.8988 32.5303L49.5342 30.1904V36.1913Z" fill="white"/>
</g>
<defs>
<clipPath id="clip0">
<rect width="40" height="40" fill="white" transform="translate(18 18)"/>
</clipPath>
</defs>
</svg>
