<svg width="803" height="205" viewBox="0 0 803 205" fill="none" xmlns="http://www.w3.org/2000/svg">
<path d="M572.819 56.519V63.0046H582.16V65.3036H572.819V72.8298H570.157V54.1958H583.298V56.519H572.819Z" fill="black"/>
<path d="M587.049 54.1958H589.711V72.8298H587.049V54.1958Z" fill="black"/>
<path d="M611.322 54.1958V72.8298H609.144L597.963 58.939V72.8298H595.301V54.1958H597.479L608.66 68.0866V54.1958H611.322Z" fill="black"/>
<path d="M615.387 63.5123C615.387 58.0673 619.598 53.9775 625.309 53.9775C630.972 53.9775 635.183 58.0189 635.183 63.5123C635.183 68.9815 630.972 73.0471 625.309 73.0471C619.598 73.0229 615.387 68.9573 615.387 63.5123ZM632.521 63.5123C632.521 59.3983 629.423 56.3491 625.309 56.3491C621.123 56.3491 618.049 59.3741 618.049 63.5123C618.049 67.6263 621.147 70.6756 625.309 70.6756C629.423 70.6514 632.521 67.6263 632.521 63.5123Z" fill="black"/>
<path d="M639.248 54.1958H641.91V70.5066H652.001V72.8298H639.248V54.1958Z" fill="black"/>
<path d="M653.188 63.5123C653.188 58.0673 657.398 53.9775 663.109 53.9775C668.772 53.9775 672.983 58.0189 672.983 63.5123C672.983 68.9815 668.772 73.0471 663.109 73.0471C657.398 73.0229 653.188 68.9573 653.188 63.5123ZM670.321 63.5123C670.321 59.3983 667.223 56.3491 663.109 56.3491C658.923 56.3491 655.849 59.3741 655.849 63.5123C655.849 67.6263 658.947 70.6756 663.109 70.6756C667.248 70.6514 670.321 67.6263 670.321 63.5123Z" fill="black"/>
<path d="M689.947 63.3916H692.513V70.6516C690.649 72.2246 688.06 73.0232 685.47 73.0232C679.759 73.0232 675.548 69.006 675.548 63.4884C675.548 57.9708 679.759 53.9536 685.519 53.9536C688.471 53.9536 690.964 54.9458 692.682 56.8334L691.036 58.479C689.488 56.9786 687.745 56.3252 685.64 56.3252C681.332 56.3252 678.21 59.326 678.21 63.4884C678.21 67.5782 681.332 70.6516 685.616 70.6516C687.189 70.6516 688.641 70.3128 689.972 69.4658V63.3916H689.947Z" fill="black"/>
<path d="M704.734 66.3684V72.8056H702.096V66.32L694.691 54.1958H697.547L703.5 64.021L709.477 54.1958H712.115L704.734 66.3684Z" fill="black"/>
<path d="M717.487 60.2943V56.2529H719.205C719.641 56.2529 719.955 56.3013 720.149 56.3739C720.342 56.4465 720.512 56.5675 720.609 56.7611C720.705 56.9547 720.778 57.1483 720.778 57.3903C720.778 57.7049 720.681 57.9469 720.512 58.1405C720.342 58.3341 720.076 58.4551 719.713 58.5035C719.883 58.6003 720.028 58.7213 720.149 58.8423C720.27 58.9633 720.415 59.1811 720.609 59.4957L721.093 60.2943H720.125L719.544 59.4231C719.326 59.1085 719.181 58.9149 719.108 58.8181C719.036 58.7455 718.939 58.6729 718.866 58.6487C718.769 58.6245 718.648 58.6003 718.455 58.6003H718.285V60.2943H717.487ZM718.31 57.9469H718.915C719.302 57.9469 719.544 57.9227 719.641 57.8985C719.737 57.8743 719.81 57.8017 719.858 57.7291C719.907 57.6565 719.931 57.5355 719.931 57.4145C719.931 57.2693 719.883 57.1725 719.81 57.0757C719.737 56.9789 719.641 56.9305 719.495 56.9063C719.423 56.9063 719.229 56.8821 718.89 56.8821H718.261V57.9469H718.31Z" fill="black"/>
<path d="M478.415 117.406C478.415 95.4568 495.645 79.3638 519.071 79.3638C542.497 79.3638 559.727 95.4568 559.727 117.406C559.727 139.356 542.497 155.449 519.071 155.449C495.645 155.449 478.415 139.356 478.415 117.406ZM538.818 117.406C538.818 104.774 530.155 96.4974 519.071 96.4974C507.987 96.4974 499.324 104.75 499.324 117.406C499.324 130.039 507.987 138.315 519.071 138.315C530.155 138.315 538.818 130.063 538.818 117.406Z" fill="black"/>
<path d="M640.168 80.8398V153.972H623.131L590.848 115.01V153.972H570.569V80.8398H587.606L619.888 119.802V80.8398H640.168Z" fill="black"/>
<path d="M713.518 138V153.996H654.785V80.8398H712.139V96.836H675.258V109.154H707.758V124.618H675.258V138H713.518Z" fill="black"/>
<path d="M483.57 73.3866L516.07 38.2724C517.74 36.4816 520.596 36.5058 522.241 38.3208L553.653 73.1446L483.57 73.3866Z" fill="#01FF66"/>
<path d="M718.988 63.0043C721.473 63.0043 723.489 60.9891 723.489 58.5031C723.489 56.0172 721.473 54.002 718.988 54.002C716.502 54.002 714.486 56.0172 714.486 58.5031C714.486 60.9891 716.502 63.0043 718.988 63.0043Z" stroke="black" stroke-miterlimit="10"/>
<rect x="2.5" y="2.5" width="798" height="200" rx="17.5" stroke="black" stroke-width="5"/>
<path d="M1 20C1 8.95431 9.95431 0 21 0H402V205H21C9.95431 205 1 196.046 1 185V20Z" fill="black"/>
<path d="M94.4703 116V88.4H87.2703V116H94.4703ZM120.288 99.88C119.728 96.16 117.128 94.08 112.728 94.08C110.768 94.08 109.248 94.52 107.928 95.32L106.008 97.96V94.64H98.8084V116H106.008V105.92C106.008 101.08 107.568 98.96 109.768 98.96C111.928 98.96 113.048 100.16 113.208 102.2C113.288 103.28 113.288 104.44 113.288 105.12V116H120.488V103.92C120.488 102.2 120.448 100.96 120.288 99.88ZM133.191 99.28H137.911V94.8H133.191V89.28H125.991V94.8H122.591V99.28H125.991V108.2C125.991 109.4 125.991 110.4 126.071 111.64C126.311 114.92 127.911 116.56 133.231 116.56C134.751 116.56 136.071 116.44 137.471 116.2V111.72C134.071 111.88 133.391 111.4 133.231 109.24C133.191 108.68 133.191 107.88 133.191 107.16V99.28ZM153.486 94.08C152.126 94.08 150.446 94.68 149.286 95.96L147.766 98.96V94.64H140.566V116H147.766V108.16C147.766 101.72 149.726 99.72 155.126 100.08V94.2C154.606 94.12 154.166 94.08 153.486 94.08ZM167.643 94.08C160.643 94.08 156.163 98.44 156.163 105.32C156.163 112.16 160.643 116.56 167.643 116.56C174.643 116.56 179.123 112.16 179.123 105.32C179.123 98.44 174.643 94.08 167.643 94.08ZM167.643 111.68C165.083 111.68 163.523 109.56 163.523 105.32C163.523 101.04 165.083 98.96 167.643 98.96C170.203 98.96 171.763 101.04 171.763 105.32C171.763 109.56 170.203 111.68 167.643 111.68ZM204.686 86.6H197.486V97.4L196.086 95.12C195.006 94.48 192.926 94.08 191.166 94.08C185.686 94.08 181.046 98.2 181.046 105.8C181.046 112.12 184.646 116.56 190.446 116.56C192.606 116.56 194.686 116.12 195.886 115.24L197.486 112.88V116H204.686V86.6ZM192.926 111.68C190.406 111.68 188.406 109.44 188.406 105.44C188.406 101.08 190.326 98.96 193.126 98.96C195.286 98.96 197.486 100.4 197.486 104.68V105.6C197.486 110.08 195.566 111.68 192.926 111.68ZM230.284 94.64H223.084V106.72C223.084 109.56 221.724 111.68 219.444 111.68C217.164 111.68 216.204 110.48 215.964 108.44C215.844 107.36 215.804 106.2 215.804 105.52V94.64H208.604V107.12C208.604 108.84 208.644 110.08 208.804 111.16C209.284 114.08 211.964 116.56 216.364 116.56C218.324 116.56 219.844 116.12 221.164 115.32L223.084 112.4V116H230.284V94.64ZM244.63 94.08C238.35 94.08 233.39 98.2 233.39 105.56C233.39 112.6 238.03 116.56 244.15 116.56C249.95 116.56 254.23 113.68 255.03 108.16H247.95C247.55 110.48 246.19 111.68 244.55 111.68C242.11 111.68 240.75 109.68 240.75 105.12C240.75 101 242.07 98.96 244.47 98.96C246.27 98.96 247.67 100 247.99 102.8H254.95C254.75 98 250.91 94.08 244.63 94.08ZM261.666 85.96C259.426 85.96 257.946 87.32 257.946 89.48C257.946 91.64 259.426 93 261.666 93C263.906 93 265.386 91.64 265.386 89.48C265.386 87.32 263.906 85.96 261.666 85.96ZM265.266 116V94.64H258.066V116H265.266ZM291.07 99.88C290.51 96.16 287.91 94.08 283.51 94.08C281.55 94.08 280.03 94.52 278.71 95.32L276.79 97.96V94.64H269.59V116H276.79V105.92C276.79 101.08 278.35 98.96 280.55 98.96C282.71 98.96 283.83 100.16 283.99 102.2C284.07 103.28 284.07 104.44 284.07 105.12V116H291.27V103.92C291.27 102.2 291.23 100.96 291.07 99.88ZM317.772 94.64H310.572V97.4L309.172 95.12C308.092 94.48 306.012 94.08 304.252 94.08C298.772 94.08 294.132 97.88 294.132 105.48C294.132 111.8 298.132 115.76 303.932 115.76C306.092 115.76 307.772 115.32 308.972 114.44L310.572 112.08V112.68C310.572 113.84 310.532 114.84 310.492 115.48C310.292 118.36 308.332 119.52 305.652 119.52C303.412 119.52 301.772 118.72 301.612 117.32L301.572 116.92H294.612L294.652 117.32C295.172 122.2 299.052 124.8 305.452 124.8C312.692 124.8 317.492 121.68 317.732 114.68C317.772 113.52 317.772 111.88 317.772 110.56V94.64ZM306.012 110.88C303.492 110.88 301.492 108.96 301.492 104.96C301.492 100.6 303.412 98.96 306.212 98.96C308.372 98.96 310.572 100.4 310.572 104.68V104.8C310.572 109.28 308.652 110.88 306.012 110.88Z" fill="white"/>
</svg>
