<svg width="60" height="60" viewBox="0 0 60 60" fill="none" xmlns="http://www.w3.org/2000/svg">
<path fill-rule="evenodd" clip-rule="evenodd" d="M21.874 58.7118C23.4435 59.1502 25.0313 59.4485 26.6323 59.6226C28.2522 59.8037 29.8722 59.839 31.4808 59.7671C33.0938 59.6744 34.7011 59.4549 36.2819 59.1035C37.8628 58.7509 39.4133 58.2854 40.919 57.6843C42.4241 57.0819 43.8787 56.3597 45.2646 55.5144C46.6491 54.6705 47.9586 53.7199 49.1942 52.6665C50.4286 51.6125 51.5633 50.4677 52.6222 49.2187C53.6571 47.9837 54.6113 46.6635 55.4399 45.2663L42.6715 37.6719C42.2651 38.3733 41.7899 39.0331 41.2649 39.6386C40.736 40.2631 40.1788 40.8383 39.554 41.3524C38.9488 41.8722 38.2906 42.3579 37.5927 42.7672C36.8941 43.1766 36.1841 43.5431 35.4294 43.8547C34.6797 44.1461 33.9022 44.3896 33.1209 44.5681C32.3207 44.7415 31.5363 44.8563 30.7102 44.8967C29.9037 44.9427 29.0934 44.9257 28.2869 44.8254C27.4735 44.7447 26.6828 44.587 25.9072 44.3706L21.874 58.7118Z" fill="#00EAA1"/>
<path fill-rule="evenodd" clip-rule="evenodd" d="M54.6407 46.545C55.5419 45.1888 56.3124 43.7765 56.9789 42.2917C57.644 40.8075 58.1924 39.2905 58.6121 37.7161C59.0311 36.1417 59.3088 34.5496 59.4653 32.9449C59.6211 31.339 59.6363 29.7141 59.5441 28.1025C59.4318 26.484 59.1889 24.8913 58.8355 23.3112C58.465 21.7261 57.9747 20.1908 57.3461 18.7003C56.7195 17.2098 55.9919 15.7741 55.1267 14.3852C54.2817 13.0007 53.306 11.7063 52.2471 10.4915L41.0684 20.2936C41.6086 20.9036 42.0743 21.5558 42.5097 22.2408C42.9439 22.9252 43.3061 23.6537 43.6229 24.3879C43.934 25.1417 44.1814 25.9011 44.355 26.7003C44.5336 27.4819 44.661 28.2905 44.7084 29.096C44.7538 29.9021 44.7563 30.7158 44.6762 31.5282C44.5941 32.3419 44.4553 33.138 44.2388 33.9125C44.0413 34.6928 43.7668 35.4504 43.4349 36.194C43.1017 36.9358 42.7167 37.6417 42.2598 38.3077L54.6407 46.545Z" fill="#00D391"/>
<path fill-rule="evenodd" clip-rule="evenodd" d="M53.1833 11.6288C52.1774 10.366 51.0686 9.1795 49.8689 8.09395C48.6686 7.00839 47.3775 6.02124 46.0163 5.13816C44.6544 4.25761 43.2352 3.50699 41.7502 2.84153C40.259 2.19626 38.7369 1.66641 37.1561 1.26587C35.5759 0.867226 33.9774 0.60798 32.3663 0.471734C30.7545 0.334226 29.1245 0.338642 27.5247 0.457226C25.901 0.587165 24.3025 0.850826 22.7349 1.22803C21.1623 1.62415 19.6199 2.13318 18.1489 2.76584L24.0267 16.41C24.7625 16.094 25.5463 15.8316 26.3314 15.6348C27.1177 15.4367 27.9267 15.3074 28.7193 15.2368C29.5315 15.1712 30.3468 15.1687 31.1401 15.2443C31.9592 15.3062 32.755 15.4456 33.5356 15.6424C34.3163 15.8398 35.0799 16.094 35.8233 16.427C36.5667 16.7595 37.2779 17.1253 37.9683 17.5687C38.6397 18.0065 39.2948 18.5035 39.8962 19.046C40.4951 19.5891 41.0403 20.1801 41.5508 20.8235L53.1833 11.6288Z" fill="#00BB81"/>
<path fill-rule="evenodd" clip-rule="evenodd" d="M19.5289 2.23145C18.015 2.79031 16.5465 3.48541 15.1335 4.28208C13.7199 5.07748 12.3972 6.00282 11.1288 7.02592C9.86158 8.04903 8.6941 9.16423 7.62002 10.3886C6.54657 11.6129 5.58419 12.8896 4.71711 14.2754C3.85444 15.6422 3.09715 17.0798 2.47113 18.5753C1.84385 20.0696 1.33395 21.5973 0.954047 23.1824C0.573513 24.7682 0.340017 26.3521 0.222008 27.9668C0.104629 29.5835 0.173416 30.505 0.177833 31.3364L15.0111 30.7157C15.001 30.5549 14.9846 29.8547 15.0458 29.036C15.102 28.2387 15.2212 27.437 15.4238 26.6359C15.6011 25.85 15.8567 25.088 16.1704 24.3393C16.4846 23.5906 16.85 22.8797 17.2937 22.1896C17.7373 21.4989 18.2087 20.8574 18.7527 20.2582C19.2967 19.6577 19.8735 19.0894 20.4982 18.5747C21.123 18.0593 21.7932 17.6001 22.488 17.2097C23.1866 16.7984 23.9287 16.4635 24.6784 16.1714L19.5289 2.23145Z" fill="#66F2C7"/>
<path fill-rule="evenodd" clip-rule="evenodd" d="M0.177734 31.3365C0.242103 32.9008 0.438996 34.438 0.743802 35.9626C1.04861 37.4878 1.48531 38.9878 2.01604 40.4512C2.56633 41.9196 3.21507 43.3331 3.98876 44.676C4.75677 46.0391 5.62953 47.3259 6.58055 48.5528C7.5524 49.7834 8.61386 50.9162 9.7624 51.9658C10.9103 53.0154 12.1232 53.9824 13.4264 54.8472C14.7302 55.7114 16.0863 56.4664 17.4936 57.1098C18.9205 57.7588 20.3801 58.2918 21.8713 58.7081L25.8711 44.3972C25.115 44.1859 24.3956 43.9216 23.6718 43.5955C22.9681 43.2726 22.2803 42.8941 21.629 42.4602C20.9778 42.0268 20.3606 41.543 19.7939 41.0296C19.2127 40.4909 18.7015 39.9308 18.2048 39.312C17.729 38.697 17.2828 38.0511 16.9061 37.3831C16.5293 36.7145 16.1886 35.9916 15.9298 35.2732C15.6522 34.5478 15.4433 33.8016 15.2836 33.0257C15.124 32.2505 15.0426 31.4974 15.0097 30.7146L0.177734 31.3365Z" fill="#33EEB4"/>
</svg>
